<svg xmlns="http://www.w3.org/2000/svg" width="920" height="520" viewBox="0 0 920 520">
<rect width="100%" height="100%" fill="#fbfaf7"/>
<style>
text { font-family: Arial, sans-serif; fill: #243044; }
.title { font-size: 22px; font-weight: 700; }
.label { font-size: 13px; }
.tick { font-size: 11px; fill: #607086; }
.annotation { font-size: 12px; fill: #344256; }
</style>

<text x="70" y="36" class="title">Inventory and Demand Under Cost-Optimal Policy (1, 12)</text>
<line x1="70" y1="450.0" x2="880" y2="450.0" stroke="#dfe4ea"/><text x="44" y="454.0" class="tick">0</text><line x1="70" y1="386.7" x2="880" y2="386.7" stroke="#dfe4ea"/><text x="44" y="390.7" class="tick">2</text><line x1="70" y1="323.3" x2="880" y2="323.3" stroke="#dfe4ea"/><text x="44" y="327.3" class="tick">4</text><line x1="70" y1="260.0" x2="880" y2="260.0" stroke="#dfe4ea"/><text x="44" y="264.0" class="tick">6</text><line x1="70" y1="196.7" x2="880" y2="196.7" stroke="#dfe4ea"/><text x="44" y="200.7" class="tick">8</text><line x1="70" y1="133.3" x2="880" y2="133.3" stroke="#dfe4ea"/><text x="44" y="137.3" class="tick">10</text><line x1="70" y1="70.0" x2="880" y2="70.0" stroke="#dfe4ea"/><text x="44" y="74.0" class="tick">12</text>
<line x1="70" y1="450" x2="880" y2="450" stroke="#9aa7b8"/>
<line x1="70" y1="70" x2="70" y2="450" stroke="#9aa7b8"/>
<line x1="70.0" y1="450" x2="70.0" y2="456" stroke="#7b8797"/><text x="62.0" y="472" class="tick">1</text><line x1="205.0" y1="450" x2="205.0" y2="456" stroke="#7b8797"/><text x="197.0" y="472" class="tick">16</text><line x1="340.0" y1="450" x2="340.0" y2="456" stroke="#7b8797"/><text x="332.0" y="472" class="tick">31</text><line x1="475.0" y1="450" x2="475.0" y2="456" stroke="#7b8797"/><text x="467.0" y="472" class="tick">46</text><line x1="610.0" y1="450" x2="610.0" y2="456" stroke="#7b8797"/><text x="602.0" y="472" class="tick">60</text><line x1="745.0" y1="450" x2="745.0" y2="456" stroke="#7b8797"/><text x="737.0" y="472" class="tick">75</text><line x1="880.0" y1="450" x2="880.0" y2="456" stroke="#7b8797"/><text x="872.0" y="472" class="tick">90</text>
<rect x="67.0" y="355.0" width="6" height="95.0" fill="#d8aa4f" opacity="0.32"/><rect x="76.1" y="355.0" width="6" height="95.0" fill="#d8aa4f" opacity="0.32"/><rect x="85.2" y="323.3" width="6" height="126.7" fill="#d8aa4f" opacity="0.32"/><rect x="94.3" y="291.7" width="6" height="158.3" fill="#d8aa4f" opacity="0.32"/><rect x="103.4" y="386.7" width="6" height="63.3" fill="#d8aa4f" opacity="0.32"/><rect x="112.5" y="418.3" width="6" height="31.7" fill="#d8aa4f" opacity="0.32"/><rect x="121.6" y="418.3" width="6" height="31.7" fill="#d8aa4f" opacity="0.32"/><rect x="130.7" y="260.0" width="6" height="190.0" fill="#d8aa4f" opacity="0.32"/><rect x="139.8" y="260.0" width="6" height="190.0" fill="#d8aa4f" opacity="0.32"/><rect x="148.9" y="386.7" width="6" height="63.3" fill="#d8aa4f" opacity="0.32"/><rect x="158.0" y="260.0" width="6" height="190.0" fill="#d8aa4f" opacity="0.32"/><rect x="167.1" y="386.7" width="6" height="63.3" fill="#d8aa4f" opacity="0.32"/><rect x="176.2" y="355.0" width="6" height="95.0" fill="#d8aa4f" opacity="0.32"/><rect x="185.3" y="355.0" width="6" height="95.0" fill="#d8aa4f" opacity="0.32"/><rect x="194.4" y="291.7" width="6" height="158.3" fill="#d8aa4f" opacity="0.32"/><rect x="203.5" y="450.0" width="6" height="0.0" fill="#d8aa4f" opacity="0.32"/><rect x="212.6" y="386.7" width="6" height="63.3" fill="#d8aa4f" opacity="0.32"/><rect x="221.7" y="355.0" width="6" height="95.0" fill="#d8aa4f" opacity="0.32"/><rect x="230.8" y="418.3" width="6" height="31.7" fill="#d8aa4f" opacity="0.32"/><rect x="239.9" y="386.7" width="6" height="63.3" fill="#d8aa4f" opacity="0.32"/><rect x="249.0" y="355.0" width="6" height="95.0" fill="#d8aa4f" opacity="0.32"/><rect x="258.1" y="291.7" width="6" height="158.3" fill="#d8aa4f" opacity="0.32"/><rect x="267.2" y="323.3" width="6" height="126.7" fill="#d8aa4f" opacity="0.32"/><rect x="276.3" y="291.7" width="6" height="158.3" fill="#d8aa4f" opacity="0.32"/><rect x="285.4" y="323.3" width="6" height="126.7" fill="#d8aa4f" opacity="0.32"/><rect x="294.5" y="323.3" width="6" height="126.7" fill="#d8aa4f" opacity="0.32"/><rect x="303.6" y="291.7" width="6" height="158.3" fill="#d8aa4f" opacity="0.32"/><rect x="312.7" y="323.3" width="6" height="126.7" fill="#d8aa4f" opacity="0.32"/><rect x="321.8" y="323.3" width="6" height="126.7" fill="#d8aa4f" opacity="0.32"/><rect x="330.9" y="386.7" width="6" height="63.3" fill="#d8aa4f" opacity="0.32"/><rect x="340.0" y="386.7" width="6" height="63.3" fill="#d8aa4f" opacity="0.32"/><rect x="349.1" y="323.3" width="6" height="126.7" fill="#d8aa4f" opacity="0.32"/><rect x="358.2" y="386.7" width="6" height="63.3" fill="#d8aa4f" opacity="0.32"/><rect x="367.3" y="291.7" width="6" height="158.3" fill="#d8aa4f" opacity="0.32"/><rect x="376.4" y="355.0" width="6" height="95.0" fill="#d8aa4f" opacity="0.32"/><rect x="385.5" y="386.7" width="6" height="63.3" fill="#d8aa4f" opacity="0.32"/><rect x="394.6" y="260.0" width="6" height="190.0" fill="#d8aa4f" opacity="0.32"/><rect x="403.7" y="386.7" width="6" height="63.3" fill="#d8aa4f" opacity="0.32"/><rect x="412.8" y="355.0" width="6" height="95.0" fill="#d8aa4f" opacity="0.32"/><rect x="421.9" y="418.3" width="6" height="31.7" fill="#d8aa4f" opacity="0.32"/><rect x="431.0" y="260.0" width="6" height="190.0" fill="#d8aa4f" opacity="0.32"/><rect x="440.1" y="355.0" width="6" height="95.0" fill="#d8aa4f" opacity="0.32"/><rect x="449.2" y="291.7" width="6" height="158.3" fill="#d8aa4f" opacity="0.32"/><rect x="458.3" y="386.7" width="6" height="63.3" fill="#d8aa4f" opacity="0.32"/><rect x="467.4" y="291.7" width="6" height="158.3" fill="#d8aa4f" opacity="0.32"/><rect x="476.6" y="323.3" width="6" height="126.7" fill="#d8aa4f" opacity="0.32"/><rect x="485.7" y="323.3" width="6" height="126.7" fill="#d8aa4f" opacity="0.32"/><rect x="494.8" y="260.0" width="6" height="190.0" fill="#d8aa4f" opacity="0.32"/><rect x="503.9" y="355.0" width="6" height="95.0" fill="#d8aa4f" opacity="0.32"/><rect x="513.0" y="355.0" width="6" height="95.0" fill="#d8aa4f" opacity="0.32"/><rect x="522.1" y="323.3" width="6" height="126.7" fill="#d8aa4f" opacity="0.32"/><rect x="531.2" y="291.7" width="6" height="158.3" fill="#d8aa4f" opacity="0.32"/><rect x="540.3" y="386.7" width="6" height="63.3" fill="#d8aa4f" opacity="0.32"/><rect x="549.4" y="323.3" width="6" height="126.7" fill="#d8aa4f" opacity="0.32"/><rect x="558.5" y="386.7" width="6" height="63.3" fill="#d8aa4f" opacity="0.32"/><rect x="567.6" y="355.0" width="6" height="95.0" fill="#d8aa4f" opacity="0.32"/><rect x="576.7" y="323.3" width="6" height="126.7" fill="#d8aa4f" opacity="0.32"/><rect x="585.8" y="418.3" width="6" height="31.7" fill="#d8aa4f" opacity="0.32"/><rect x="594.9" y="323.3" width="6" height="126.7" fill="#d8aa4f" opacity="0.32"/><rect x="604.0" y="450.0" width="6" height="0.0" fill="#d8aa4f" opacity="0.32"/><rect x="613.1" y="260.0" width="6" height="190.0" fill="#d8aa4f" opacity="0.32"/><rect x="622.2" y="355.0" width="6" height="95.0" fill="#d8aa4f" opacity="0.32"/><rect x="631.3" y="355.0" width="6" height="95.0" fill="#d8aa4f" opacity="0.32"/><rect x="640.4" y="323.3" width="6" height="126.7" fill="#d8aa4f" opacity="0.32"/><rect x="649.5" y="355.0" width="6" height="95.0" fill="#d8aa4f" opacity="0.32"/><rect x="658.6" y="323.3" width="6" height="126.7" fill="#d8aa4f" opacity="0.32"/><rect x="667.7" y="418.3" width="6" height="31.7" fill="#d8aa4f" opacity="0.32"/><rect x="676.8" y="355.0" width="6" height="95.0" fill="#d8aa4f" opacity="0.32"/><rect x="685.9" y="355.0" width="6" height="95.0" fill="#d8aa4f" opacity="0.32"/><rect x="695.0" y="260.0" width="6" height="190.0" fill="#d8aa4f" opacity="0.32"/><rect x="704.1" y="450.0" width="6" height="0.0" fill="#d8aa4f" opacity="0.32"/><rect x="713.2" y="355.0" width="6" height="95.0" fill="#d8aa4f" opacity="0.32"/><rect x="722.3" y="323.3" width="6" height="126.7" fill="#d8aa4f" opacity="0.32"/><rect x="731.4" y="355.0" width="6" height="95.0" fill="#d8aa4f" opacity="0.32"/><rect x="740.5" y="418.3" width="6" height="31.7" fill="#d8aa4f" opacity="0.32"/><rect x="749.6" y="355.0" width="6" height="95.0" fill="#d8aa4f" opacity="0.32"/><rect x="758.7" y="386.7" width="6" height="63.3" fill="#d8aa4f" opacity="0.32"/><rect x="767.8" y="386.7" width="6" height="63.3" fill="#d8aa4f" opacity="0.32"/><rect x="776.9" y="291.7" width="6" height="158.3" fill="#d8aa4f" opacity="0.32"/><rect x="786.0" y="386.7" width="6" height="63.3" fill="#d8aa4f" opacity="0.32"/><rect x="795.1" y="355.0" width="6" height="95.0" fill="#d8aa4f" opacity="0.32"/><rect x="804.2" y="323.3" width="6" height="126.7" fill="#d8aa4f" opacity="0.32"/><rect x="813.3" y="323.3" width="6" height="126.7" fill="#d8aa4f" opacity="0.32"/><rect x="822.4" y="355.0" width="6" height="95.0" fill="#d8aa4f" opacity="0.32"/><rect x="831.5" y="291.7" width="6" height="158.3" fill="#d8aa4f" opacity="0.32"/><rect x="840.6" y="355.0" width="6" height="95.0" fill="#d8aa4f" opacity="0.32"/><rect x="849.7" y="323.3" width="6" height="126.7" fill="#d8aa4f" opacity="0.32"/><rect x="858.8" y="291.7" width="6" height="158.3" fill="#d8aa4f" opacity="0.32"/><rect x="867.9" y="323.3" width="6" height="126.7" fill="#d8aa4f" opacity="0.32"/><rect x="877.0" y="323.3" width="6" height="126.7" fill="#d8aa4f" opacity="0.32"/>
<polyline points="70.0,165.0 79.1,260.0 88.2,386.7 97.3,450.0 106.4,133.3 115.5,165.0 124.6,196.7 133.7,386.7 142.8,450.0 151.9,133.3 161.0,323.3 170.1,386.7 179.2,450.0 188.3,165.0 197.4,323.3 206.5,323.3 215.6,386.7 224.7,450.0 233.8,101.7 242.9,165.0 252.0,260.0 261.1,418.3 270.2,196.7 279.3,355.0 288.4,450.0 297.5,196.7 306.6,355.0 315.7,450.0 324.8,196.7 333.9,260.0 343.0,323.3 352.1,450.0 361.2,133.3 370.3,291.7 379.4,386.7 388.5,450.0 397.6,260.0 406.7,323.3 415.8,418.3 424.9,101.7 434.0,291.7 443.1,386.7 452.2,450.0 461.3,133.3 470.4,291.7 479.6,418.3 488.7,196.7 497.8,386.7 506.9,450.0 516.0,165.0 525.1,291.7 534.2,450.0 543.3,133.3 552.4,260.0 561.5,323.3 570.6,418.3 579.7,196.7 588.8,228.3 597.9,355.0 607.0,355.0 616.1,450.0 625.2,165.0 634.3,260.0 643.4,386.7 652.5,450.0 661.6,196.7 670.7,228.3 679.8,323.3 688.9,418.3 698.0,260.0 707.1,260.0 716.2,355.0 725.3,450.0 734.4,165.0 743.5,196.7 752.6,291.7 761.7,355.0 770.8,418.3 779.9,228.3 789.0,291.7 798.1,386.7 807.2,450.0 816.3,196.7 825.4,291.7 834.5,450.0 843.6,165.0 852.7,291.7 861.8,450.0 870.9,196.7 880.0,323.3" fill="none" stroke="#334155" stroke-width="3"/>
<text x="438.0" y="496" class="label">Day</text>
<text x="16" y="260.0" class="label" transform="rotate(-90 16,260.0)">Units</text>
<rect x="670" y="72" width="14" height="14" fill="#d8aa4f" opacity="0.32"/>
<text x="692" y="84" class="tick">Daily demand</text>
<line x1="670" y1="106" x2="684" y2="106" stroke="#334155" stroke-width="3"/>
<text x="692" y="110" class="tick">Ending inventory</text>

</svg>
